<svg xmlns="http://www.w3.org/2000/svg" width="30" height="30" viewBox="0 0 30 30">
  <g id="instagram" transform="translate(-784 -3073)">
    <circle id="Ellipse_3_copy" data-name="Ellipse 3 copy" cx="15" cy="15" r="15" transform="translate(784 3073)" fill="#7f7f7f"/>
    <path id="Forma_1" data-name="Forma 1" d="M795.416,3096a4.42,4.42,0,0,1-4.415-4.415v-7.169a4.421,4.421,0,0,1,4.415-4.416h7.169a4.419,4.419,0,0,1,4.415,4.416v7.169a4.42,4.42,0,0,1-4.415,4.415Zm-3-11.585v7.169a3,3,0,0,0,3,3h7.169a3,3,0,0,0,3-3v-7.169a3,3,0,0,0-3-3h-7.169A3,3,0,0,0,792.419,3084.415Zm2.458,3.586a4.123,4.123,0,1,1,4.123,4.122A4.128,4.128,0,0,1,794.877,3088Zm1.419,0a2.7,2.7,0,1,0,2.7-2.7A2.706,2.706,0,0,0,796.3,3088Zm6.264-3.55a1.04,1.04,0,1,1,.735.3A1.046,1.046,0,0,1,802.561,3084.45Z" fill="#fff"/>
  </g>
</svg>
