<svg xmlns="http://www.w3.org/2000/svg" width="30" height="30" viewBox="0 0 30 30">
  <g id="twitter" transform="translate(-841 -3073)">
    <circle id="Ellipse_3_copy_2" data-name="Ellipse 3 copy 2" cx="15" cy="15" r="15" transform="translate(841 3073)" fill="#7f7f7f"/>
    <path id="Shape_3" data-name="Shape 3" d="M863.745,3083.512a6.453,6.453,0,0,1-1.1.364,3.351,3.351,0,0,0,.908-1.412h0a.179.179,0,0,0-.264-.205h0a6.458,6.458,0,0,1-1.686.681.447.447,0,0,1-.4-.1,3.5,3.5,0,0,0-2.282-.841,3.759,3.759,0,0,0-1.093.165,3.3,3.3,0,0,0-2.252,2.352,3.515,3.515,0,0,0-.082,1.241.12.12,0,0,1-.031.095.13.13,0,0,1-.1.042h-.012a9.107,9.107,0,0,1-6.216-3.244h0a.183.183,0,0,0-.3.022h0a3.314,3.314,0,0,0,.561,4.1,3.114,3.114,0,0,1-.787-.3h0a.18.18,0,0,0-.268.152h0a3.369,3.369,0,0,0,2.014,3.108h-.074a3.158,3.158,0,0,1-.581-.054h0a.178.178,0,0,0-.206.227h0a3.434,3.434,0,0,0,2.73,2.3,6.474,6.474,0,0,1-3.565,1.058h-.4a.259.259,0,0,0-.127.489A9.641,9.641,0,0,0,852.9,3095a9.792,9.792,0,0,0,4.065-.842,8.967,8.967,0,0,0,2.974-2.177,9.5,9.5,0,0,0,1.821-2.98,9.216,9.216,0,0,0,.619-3.261v-.051a.568.568,0,0,1,.22-.446,6.728,6.728,0,0,0,1.372-1.47h0a.178.178,0,0,0-.223-.259Z" fill="#fff"/>
  </g>
</svg>
